<svg width="31" height="31" viewBox="0 0 31 31" fill="none" xmlns="http://www.w3.org/2000/svg">
<path d="M19.2614 10.2727H15.4091M11.5568 17.9773H15.4091M15.4091 10.2727H14.605C13.6307 10.2727 12.8409 11.0625 12.8409 12.0368C12.8409 12.8777 13.4345 13.6017 14.259 13.7666L17.8433 14.4834C18.6679 14.6484 19.2614 15.3724 19.2614 16.2132C19.2614 17.1875 18.4716 17.9773 17.4973 17.9773H15.4091M15.4091 10.2727V7.70457M15.4091 17.9773V20.5455M26.9659 27.608V7.70457C26.9659 5.57702 25.2412 3.85229 23.1137 3.85229H7.70457C5.57701 3.85229 3.85229 5.57702 3.85229 7.70457V20.5455C3.85229 22.673 5.57702 24.3977 7.70457 24.3977H19.9392C20.3379 24.3977 20.7311 24.4906 21.0877 24.6689L26.9659 27.608Z" stroke="white" stroke-width="2.56818"/>
</svg>
