<svg width="31" height="31" viewBox="0 0 31 31" fill="none" xmlns="http://www.w3.org/2000/svg">
<path d="M16.1934 20.126H13.8403C13.8488 19.3802 13.9205 18.7704 14.0554 18.2965C14.1988 17.8149 14.4307 17.376 14.7512 16.9798C15.0717 16.5836 15.4976 16.1331 16.029 15.6281C16.4169 15.263 16.7712 14.9212 17.0917 14.6027C17.4206 14.2765 17.6863 13.9269 17.8887 13.554C18.0911 13.1734 18.1923 12.7189 18.1923 12.1907C18.1923 11.6547 18.0869 11.1925 17.876 10.8041C17.6736 10.4156 17.37 10.1166 16.9652 9.90683C16.5688 9.69708 16.0754 9.59221 15.485 9.59221C14.9958 9.59221 14.5319 9.67378 14.0933 9.83691C13.6548 10 13.3005 10.2525 13.0307 10.5943C12.7608 10.9284 12.6216 11.3673 12.6132 11.911H10.2727C10.2896 11.0332 10.5257 10.2797 10.9812 9.65047C11.445 9.02125 12.0692 8.53962 12.8535 8.20558C13.6379 7.87155 14.5151 7.70453 15.485 7.70453C16.5561 7.70453 17.467 7.8832 18.2176 8.24054C18.9767 8.59788 19.5544 9.11058 19.9508 9.77865C20.3472 10.439 20.5454 11.2235 20.5454 12.1324C20.5454 12.8316 20.3894 13.4763 20.0773 14.0667C19.7737 14.6493 19.3815 15.197 18.9008 15.7097C18.42 16.2224 17.9098 16.7118 17.37 17.1779C16.9061 17.5741 16.5941 18.0208 16.4338 18.5179C16.2736 19.0151 16.1934 19.5511 16.1934 20.126Z" fill="white"/>
<path d="M13.858 21.3238V23.1136H16.1934V21.3238H13.858Z" fill="white"/>
<circle cx="15.4093" cy="15.4091" r="12.8409" stroke="white" stroke-width="2.56818"/>
</svg>
