<svg width="31" height="31" viewBox="0 0 31 31" fill="none" xmlns="http://www.w3.org/2000/svg">
<path d="M7.06259 9.63068L4.91614 11.7771C2.91026 13.783 2.91026 17.0352 4.91614 19.041L7.06259 21.1875M7.06259 9.63068L11.7772 4.91605C13.7831 2.91017 17.0353 2.91017 19.0411 4.91605L23.7558 9.63068M7.06259 9.63068L9.79034 9.63068C10.1014 9.63068 10.4018 9.74357 10.6359 9.94839L14.5636 13.3851C15.0477 13.8087 15.7706 13.8087 16.2548 13.3851L20.1824 9.94839C20.4165 9.74357 20.717 9.63068 21.028 9.63068L23.7558 9.63068M23.7558 9.63068L25.9022 11.7771C27.9081 13.783 27.9081 17.0352 25.9022 19.041L23.7558 21.1875M7.06259 21.1875L11.7772 25.9021C13.7831 27.908 17.0353 27.908 19.0411 25.9021L23.7558 21.1875M7.06259 21.1875H9.90454C10.1452 21.1875 10.381 21.1199 10.5851 20.9923L14.7286 18.4026C15.145 18.1424 15.6734 18.1424 16.0897 18.4026L20.2332 20.9923C20.4373 21.1199 20.6732 21.1875 20.9138 21.1875H23.7558" stroke="white" stroke-width="2.56818"/>
</svg>
